<svg width="52" height="145" viewBox="0 0 52 145" fill="none" xmlns="http://www.w3.org/2000/svg">
<path d="M51 123.76V128.872L36.672 130.6V137.512L51 139.24V144.208L0.599997 137.872L0.599997 130.168L51 123.76ZM32.424 137.008V131.104L4.632 134.056L32.424 137.008ZM23.64 107.658H0.599997L0.599997 102.546H51V107.658H27.888V114.858H51V119.898H0.599997L0.599997 114.858H23.64V107.658ZM51.432 87.6261C51.432 95.6901 42.504 97.4181 25.584 97.4181C8.808 97.4181 0.167998 95.6901 0.167998 87.6261C0.167998 79.6341 8.736 77.8341 25.584 77.8341C42.72 77.8341 51.432 79.5621 51.432 87.6261ZM47.04 87.6261C47.04 83.8101 39.84 82.8741 25.584 82.8741C11.544 82.8741 4.56 83.8101 4.56 87.6261C4.56 91.5141 11.616 92.3781 25.584 92.3781C39.696 92.3781 47.04 91.5141 47.04 87.6261ZM23.64 60.4079H0.599997L0.599997 55.2959H51V60.4079H27.888V67.6079H51V72.6479H0.599997L0.599997 67.6079H23.64V60.4079ZM51.432 40.5921C51.432 47.6481 44.664 50.1681 25.584 50.1681C6.936 50.1681 0.167998 47.7201 0.167998 40.6641C0.167998 34.3281 6.216 31.4481 20.184 31.1601V36.0561C9.096 36.4881 4.56 37.8561 4.56 40.5921C4.56 43.8321 10.464 45.1281 25.584 45.1281C41.352 45.1281 47.04 43.9041 47.04 40.5921C47.04 37.7121 42.504 36.3441 31.992 36.1281V31.2321C45.744 31.5921 51.432 34.2561 51.432 40.5921ZM18.744 20.9204V17.8964C18.744 12.1364 24 9.25637 34.728 9.25637C45.6 9.25637 51 12.2804 51 18.2564V25.9604H0.599997L0.599997 20.9204H18.744ZM51 5.36837H0.599997L0.599997 0.328373H51V5.36837ZM46.752 20.9204V18.9764C46.752 15.6644 43.368 14.3684 34.728 14.3684C26.304 14.3684 22.92 15.5924 22.92 18.6164V20.9204H46.752Z" fill="#FF86D7"/>
</svg>
