<svg width="52" height="232" viewBox="0 0 52 232" fill="none" xmlns="http://www.w3.org/2000/svg">
<path d="M24.792 220.096C26.16 216.424 29.976 214.84 36.888 214.84C46.536 214.84 51 217.864 51 224.344V231.976H0.599997L0.599997 223.696C0.599997 218.296 4.92 215.416 13.056 215.416C19.176 215.416 23.28 217.072 24.792 220.096ZM4.776 224.272V226.936H22.848V224.344C22.848 221.536 20.04 220.384 13.56 220.384C7.224 220.384 4.776 221.536 4.776 224.272ZM46.824 226.936V224.272C46.824 221.248 43.728 219.952 36.528 219.952C29.472 219.952 26.88 221.248 26.88 224.56V226.936H46.824ZM18.744 204.858V201.834C18.744 196.074 24 193.194 34.728 193.194C45.6 193.194 51 196.218 51 202.194V209.898H0.599997L0.599997 204.858H18.744ZM51 189.306H0.599997L0.599997 184.266H51V189.306ZM46.752 204.858V202.914C46.752 199.602 43.368 198.306 34.728 198.306C26.304 198.306 22.92 199.53 22.92 202.554V204.858H46.752ZM51 173.147L51 178.187H0.599997L0.599997 160.907H51V166.019H4.992L4.992 173.147H51ZM31.56 147.643L0.599997 142.675L0.599997 137.635L51 146.995V152.035L41.208 150.163L0.599997 156.931L0.599997 151.675L31.56 147.643ZM51.432 125.741C51.432 132.797 44.664 135.317 25.584 135.317C6.936 135.317 0.167998 132.869 0.167998 125.813C0.167998 119.477 6.216 116.597 20.184 116.309V121.205C9.096 121.637 4.56 123.005 4.56 125.741C4.56 128.981 10.464 130.277 25.584 130.277C41.352 130.277 47.04 129.053 47.04 125.741C47.04 122.861 42.504 121.493 31.992 121.277V116.381C45.744 116.741 51.432 119.405 51.432 125.741ZM25.944 101.317L51 93.1088V98.4368L27.024 106.069H51V111.109H0.599997L0.599997 106.069H25.944L0.599997 98.9408L0.599997 93.9008L25.944 101.317ZM23.64 76.9313H0.599997L0.599997 71.8193H51V76.9313H27.888V84.1313H51V89.1713H0.599997L0.599997 84.1313H23.64V76.9313ZM39.048 61.0756L0.599997 52.5796L0.599997 47.1796H51V51.9316H12.984L51 60.3556L51 65.8276H0.599997L0.599997 61.0756H39.048ZM25.944 31.3559L51 23.1479V28.4759L27.024 36.1079H51V41.1479H0.599997L0.599997 36.1079H25.944L0.599997 28.9799L0.599997 23.9399L25.944 31.3559ZM39.048 14.4584L0.599997 5.96237L0.599997 0.562373H51V5.31437H12.984L51 13.7384V19.2104H0.599997L0.599997 14.4584H39.048Z" fill="#00D4A6"/>
</svg>
