<svg width="52" height="153" viewBox="0 0 52 153" fill="none" xmlns="http://www.w3.org/2000/svg">
<path d="M23.64 140.736H0.599997L0.599997 135.624H51V140.736H27.888V147.936H51V152.976H0.599997L0.599997 147.936H23.64V140.736ZM51.432 120.704C51.432 128.768 42.504 130.496 25.584 130.496C8.808 130.496 0.167998 128.768 0.167998 120.704C0.167998 112.712 8.736 110.912 25.584 110.912C42.72 110.912 51.432 112.64 51.432 120.704ZM47.04 120.704C47.04 116.888 39.84 115.952 25.584 115.952C11.544 115.952 4.56 116.888 4.56 120.704C4.56 124.592 11.616 125.456 25.584 125.456C39.696 125.456 47.04 124.592 47.04 120.704ZM24.792 93.846C26.16 90.174 29.976 88.59 36.888 88.59C46.536 88.59 51 91.614 51 98.094V105.726H0.599997L0.599997 97.446C0.599997 92.046 4.92 89.166 13.056 89.166C19.176 89.166 23.28 90.822 24.792 93.846ZM4.776 98.022V100.686H22.848V98.094C22.848 95.286 20.04 94.134 13.56 94.134C7.224 94.134 4.776 95.286 4.776 98.022ZM46.824 100.686V98.022C46.824 94.998 43.728 93.702 36.528 93.702C29.472 93.702 26.88 94.998 26.88 98.31V100.686H46.824ZM51.432 74.7199C51.432 82.7839 42.504 84.5119 25.584 84.5119C8.808 84.5119 0.167998 82.7839 0.167998 74.7199C0.167998 66.7279 8.736 64.9279 25.584 64.9279C42.72 64.9279 51.432 66.6559 51.432 74.7199ZM47.04 74.7199C47.04 70.9039 39.84 69.9679 25.584 69.9679C11.544 69.9679 4.56 70.9039 4.56 74.7199C4.56 78.6079 11.616 79.4719 25.584 79.4719C39.696 79.4719 47.04 78.6079 47.04 74.7199ZM51.432 51.0296C51.432 58.0856 44.664 60.6056 25.584 60.6056C6.936 60.6056 0.167998 58.1576 0.167998 51.1016C0.167998 44.7656 6.216 41.8856 20.184 41.5976V46.4936C9.096 46.9256 4.56 48.2936 4.56 51.0296C4.56 54.2696 10.464 55.5656 25.584 55.5656C41.352 55.5656 47.04 54.3416 47.04 51.0296C47.04 48.1496 42.504 46.7816 31.992 46.5656V41.6696C45.744 42.0296 51.432 44.6936 51.432 51.0296ZM0.599997 23.2067H4.992V28.5347H51V33.6467H4.992V38.9747H0.599997L0.599997 23.2067ZM39.048 14.349L0.599997 5.853L0.599997 0.452998H51V5.205H12.984L51 13.629V19.101H0.599997L0.599997 14.349H39.048Z" fill="#FF86D7"/>
</svg>
