<svg width="51" height="173" viewBox="0 0 51 173" fill="none" xmlns="http://www.w3.org/2000/svg">
<path d="M51 167.936V172.976H0.599997L0.599997 155.696H51V160.808H4.992L4.992 167.936H51ZM51 131.416V136.528L36.672 138.256V145.168L51 146.896V151.864L0.599997 145.528L0.599997 137.824L51 131.416ZM32.424 144.664V138.76L4.632 141.712L32.424 144.664ZM0.599997 119.85C0.599997 114.018 5.856 111.21 16.584 111.21C27.528 111.21 32.928 114.234 32.928 120.21V122.514H51V127.554H0.599997L0.599997 119.85ZM28.752 122.514V120.93C28.752 117.618 25.296 116.25 16.656 116.25C8.232 116.25 4.848 117.546 4.848 120.57V122.514H28.752ZM0.599997 92.9176H4.992V98.2456H51V103.358H4.992L4.992 108.686H0.599997L0.599997 92.9176ZM23.64 76.5719H0.599997L0.599997 71.4599H51V76.5719H27.888V83.7719H51V88.8119H0.599997L0.599997 83.7719H23.64V76.5719ZM0.599997 51.7162H4.992V60.5722H23.424V52.5802H27.744V60.5722H46.608V51.7162H51V65.4682H0.599997L0.599997 51.7162ZM0.599997 39.1314C0.599997 33.2994 5.856 30.4914 16.584 30.4914C27.528 30.4914 32.928 33.5154 32.928 39.4914V41.7954H51V46.8354H0.599997L0.599997 39.1314ZM28.752 41.7954V40.2114C28.752 36.8994 25.296 35.5314 16.656 35.5314C8.232 35.5314 4.848 36.8274 4.848 39.8514V41.7954H28.752ZM18.744 20.9829V17.9589C18.744 12.1989 24 9.31887 34.728 9.31887C45.6 9.31887 51 12.3429 51 18.3189V26.0229H0.599997L0.599997 20.9829H18.744ZM51 5.43087H0.599997L0.599997 0.390873H51L51 5.43087ZM46.752 20.9829V19.0389C46.752 15.7269 43.368 14.4309 34.728 14.4309C26.304 14.4309 22.92 15.6549 22.92 18.6789V20.9829H46.752Z" fill="#00D4A6"/>
</svg>
